# xmcd
#
# Track frame offsets:
#	150
#	22078
#	37115
#	49106
#	61624
#	75440
#	85656
#	101330
#	118335
#	136146
#	149574
#	159664
#	173247
#	189108
#	204468
#	219719
#	235219
#	254591
#	271467
#	286146
#
# Disc length: 4110 seconds
#
# Revision: 0
# Processed by: cddbd v1.5.2PL0 Copyright (c) Steve Scherf et al.
# Submitted via: EasyCDDAExtractor 2010.6.0.0
#
DISCID=1f100c14
DTITLE=Cats, The - The Cats 100 /CD4
DYEAR=1900
DGENRE=Pop
TTITLE0=1982 El Paso
TTITLE1=1970 The Greatest Thing
TTITLE2=1965 I've Just Seen A Face
TTITLE3=1970 Ave Maria No Morro
TTITLE4=1970 Take Me With You
TTITLE5=1970 Lonely Nights
TTITLE6=1983 Darling Oh Darling
TTITLE7=1983 Samaina
TTITLE8=1970 I Walk Trough The Fields
TTITLE9=1968 I've Always Tried To Understand
TTITLE10=1970 Irish
TTITLE11=1968 Lies
TTITLE12=1983 Second Pair Of Eyes
TTITLE13=1985 Hey Baby (Won't You Come Out Tonight)
TTITLE14=1974 Time Machine
TTITLE15=1994 Poppy
TTITLE16=1994 Shine On
TTITLE17=1994 Money-Maker
TTITLE18=1983 She Don't Love Me
TTITLE19=1983 Silent Breeze
EXTD=
EXTT0=
EXTT1=
EXTT2=
EXTT3=
EXTT4=
EXTT5=
EXTT6=
EXTT7=
EXTT8=
EXTT9=
EXTT10=
EXTT11=
EXTT12=
EXTT13=
EXTT14=
EXTT15=
EXTT16=
EXTT17=
EXTT18=
EXTT19=
PLAYORDER=
